# xmcd
#
# Track frame offsets:
#	150
#	13642
#	26817
#	41724
#	56486
#	72589
#	82949
#	98755
#	110794
#	127461
#	144427
#	159420
#	172719
#	187284
#	205939
#	220315
#	238295
#	255899
#
# Disc length: 3724 seconds
#
# Revision: 0
# Processed by: cddbd v1.5.2PL0 Copyright (c) Steve Scherf et al.
# Submitted via: dBpowerAMP V4.0
#
DISCID=090e8a12
DTITLE=Heather Myles  - Live@Newland.nl 
DYEAR=2008
DGENRE=Country
TTITLE0=You`ve Taken Me Places
TTITLE1=Nashville`s Gone Hollywood
TTITLE2=Who Did You Call Darlin`
TTITLE3=One Man Woman Again
TTITLE4=Big Cars
TTITLE5=Playin` Every Honky Tonk in Town
TTITLE6=Help Me Make it Through the Night
TTITLE7=Rock at the End of the Rainbow
TTITLE8=No One Will Ever Know
TTITLE9=True Love
TTITLE10=Sweet Talk and Good Lies
TTITLE11=Little Chapel
TTITLE12=Broken Heart For Sale
TTITLE13=Love Me a Little Bit Longer
TTITLE14=Together Again
TTITLE15=Mr. Lonesome
TTITLE16=Rum and Rodeo
TTITLE17=Cadillac Cowboy
EXTD=
EXTT0=
EXTT1=
EXTT2=
EXTT3=
EXTT4=
EXTT5=
EXTT6=
EXTT7=
EXTT8=
EXTT9=
EXTT10=
EXTT11=
EXTT12=
EXTT13=
EXTT14=
EXTT15=
EXTT16=
EXTT17=
PLAYORDER=
